<svg width="17" height="18" viewBox="0 0 17 18" fill="none" xmlns="http://www.w3.org/2000/svg">
<path d="M1.63333 5.73203H1.86667C2.765 5.73203 3.5 6.46703 3.5 7.36537V15.532C3.5 16.4304 2.765 17.1654 1.86667 17.1654H1.63333C0.735 17.1654 0 16.4304 0 15.532V7.36537C0 6.46703 0.735 5.73203 1.63333 5.73203ZM8.16667 0.832031C9.065 0.832031 9.8 1.56703 9.8 2.46536V15.532C9.8 16.4304 9.065 17.1654 8.16667 17.1654C7.26833 17.1654 6.53333 16.4304 6.53333 15.532V2.46536C6.53333 1.56703 7.26833 0.832031 8.16667 0.832031ZM14.7 10.1654C15.5983 10.1654 16.3333 10.9004 16.3333 11.7987V15.532C16.3333 16.4304 15.5983 17.1654 14.7 17.1654C13.8017 17.1654 13.0667 16.4304 13.0667 15.532V11.7987C13.0667 10.9004 13.8017 10.1654 14.7 10.1654Z" fill="#B8B8B8"/>
</svg>
