<svg width="110" height="43" viewBox="0 0 110 43" fill="none" xmlns="http://www.w3.org/2000/svg">
<path d="M5.58187 14.7184C3.9029 13.4314 -0.207215 9.05179 2.77344 5.79084C5.59288 2.70626 9.01365 5.64985 9.47533 6.70674C10.3615 8.73533 8.93927 10.6707 9.97533 11.7067C10.9753 12.7067 11.2978 10.9791 12.5254 9.32263C14.0858 7.21688 15.4753 7.20674 15.9758 7.20645" stroke="#FFA822" stroke-width="0.7" stroke-linecap="round"/>
<path d="M25.3397 22.3398H14.4399C12.2283 23.5404 13.5184 24.9463 14.4399 25.4992C14.5978 25.5255 15.751 25.5624 19.0999 25.4992C23.2861 25.4202 25.3397 27.1579 25.5766 30.1593C25.7662 32.5604 23.2862 34.8194 21.8644 34.8194H13.2551C14.0713 35.7408 16.0038 37.8681 17.2043 39.0055C18.4049 40.1429 20.0478 40.0624 20.8376 39.3215C23.3914 36.9256 28.4991 31.818 29.8418 30.3962C31.2125 28.9448 30.7107 27.5528 29.8418 26.684L25.3397 22.3398Z" fill="#FFA822"/>
<path d="M16.5738 13.5721L22.1817 19.2589H15.3101C13.4145 19.2589 10.2867 19.7328 10.0971 23.2081C9.90756 26.6834 12.6246 28.895 14.4413 28.895L21.0759 28.974C22.9716 29.132 22.7346 31.6594 20.9969 31.5805C20.3651 31.5805 18.6116 31.5331 14.7572 31.6594C10.9028 31.7858 10.0971 31.4225 9.7022 31.1066C9.46525 30.9486 9.7022 31.2487 7.49064 28.974C4.87977 26.2885 4.04587 25.5777 4.01536 24.2349C3.98903 23.0765 3.95217 19.954 4.01536 16.7314C4.09434 12.7032 6.14725 13.2561 10.729 13.2561C14.6782 13.2561 16.0999 13.0981 16.5738 13.5721Z" fill="white"/>
<circle cx="5.98047" cy="15.2305" r="2.5" fill="#002244" stroke="#969696"/>
<circle cx="5.98047" cy="15.2305" r="1.75" stroke="white" stroke-width="0.5"/>
<path d="M39.112 34.26C37.7947 34.26 36.5987 33.9567 35.524 33.35C34.4667 32.726 33.6173 31.894 32.976 30.854C32.352 29.7967 32.04 28.618 32.04 27.318C32.04 26.0007 32.3347 24.822 32.924 23.782C33.5133 22.742 34.3193 21.9187 35.342 21.312C36.3647 20.688 37.5173 20.376 38.8 20.376C40.1 20.376 41.244 20.6793 42.232 21.286C43.22 21.8927 43.9913 22.7333 44.546 23.808C45.118 24.8653 45.404 26.0873 45.404 27.474V28.384H36.174C36.3127 28.8867 36.5293 29.3287 36.824 29.71C37.1187 30.0913 37.4827 30.386 37.916 30.594C38.3493 30.802 38.8173 30.906 39.32 30.906C39.8747 30.906 40.3773 30.8107 40.828 30.62C41.296 30.4293 41.6773 30.152 41.972 29.788L44.754 32.102C43.8873 32.8647 43.012 33.4193 42.128 33.766C41.244 34.0953 40.2387 34.26 39.112 34.26ZM36.174 25.992H41.504C41.3827 25.5067 41.192 25.0907 40.932 24.744C40.672 24.3973 40.36 24.1287 39.996 23.938C39.632 23.7473 39.2247 23.652 38.774 23.652C38.3407 23.652 37.942 23.7473 37.578 23.938C37.2313 24.1113 36.9367 24.3713 36.694 24.718C36.4687 25.0647 36.2953 25.4893 36.174 25.992ZM48.0247 34V15.488L52.2367 14.838V34H48.0247ZM55.515 34V15.488L59.727 14.838V34H55.515ZM69.4792 34.26C68.1619 34.26 66.9659 33.9567 65.8912 33.35C64.8339 32.726 63.9845 31.894 63.3432 30.854C62.7192 29.7967 62.4072 28.618 62.4072 27.318C62.4072 26.0007 62.7019 24.822 63.2912 23.782C63.8805 22.742 64.6865 21.9187 65.7092 21.312C66.7319 20.688 67.8845 20.376 69.1672 20.376C70.4672 20.376 71.6112 20.6793 72.5992 21.286C73.5872 21.8927 74.3585 22.7333 74.9132 23.808C75.4852 24.8653 75.7712 26.0873 75.7712 27.474V28.384H66.5412C66.6799 28.8867 66.8965 29.3287 67.1912 29.71C67.4859 30.0913 67.8499 30.386 68.2832 30.594C68.7165 30.802 69.1845 30.906 69.6872 30.906C70.2419 30.906 70.7445 30.8107 71.1952 30.62C71.6632 30.4293 72.0445 30.152 72.3392 29.788L75.1212 32.102C74.2545 32.8647 73.3792 33.4193 72.4952 33.766C71.6112 34.0953 70.6059 34.26 69.4792 34.26ZM66.5412 25.992H71.8712C71.7499 25.5067 71.5592 25.0907 71.2992 24.744C71.0392 24.3973 70.7272 24.1287 70.3632 23.938C69.9992 23.7473 69.5919 23.652 69.1412 23.652C68.7079 23.652 68.3092 23.7473 67.9452 23.938C67.5985 24.1113 67.3039 24.3713 67.0612 24.718C66.8359 25.0647 66.6625 25.4893 66.5412 25.992ZM78.3919 34V20.584H82.6039V23.626C83.0372 22.4993 83.5486 21.6673 84.1379 21.13C84.7446 20.5927 85.4466 20.324 86.2439 20.324C86.5386 20.3413 86.7812 20.3673 86.9719 20.402C87.1626 20.4367 87.3879 20.5233 87.6479 20.662V24.276C87.3879 24.1373 87.0846 24.0333 86.7379 23.964C86.3912 23.8947 86.0359 23.86 85.6719 23.86C85.0479 23.86 84.4672 24.016 83.9299 24.328C83.3926 24.6227 82.9506 25.0213 82.6039 25.524V34H78.3919Z" fill="#FF9B00"/>
<path d="M95.9096 34.26C94.5749 34.26 93.3789 33.9567 92.3216 33.35C91.2643 32.7433 90.4236 31.92 89.7996 30.88C89.1929 29.8227 88.8896 28.6353 88.8896 27.318C88.8896 26.0007 89.1929 24.822 89.7996 23.782C90.4236 22.7247 91.2643 21.8927 92.3216 21.286C93.3789 20.6793 94.5663 20.376 95.8836 20.376C97.2183 20.376 98.4056 20.6793 99.4456 21.286C100.503 21.8927 101.335 22.7247 101.942 23.782C102.566 24.822 102.878 26.0007 102.878 27.318C102.878 28.6353 102.566 29.8227 101.942 30.88C101.335 31.92 100.503 32.7433 99.4456 33.35C98.4056 33.9567 97.2269 34.26 95.9096 34.26ZM95.8836 30.75C96.4556 30.75 96.9583 30.6027 97.3916 30.308C97.8249 30.0133 98.1629 29.606 98.4056 29.086C98.6483 28.566 98.7696 27.9767 98.7696 27.318C98.7696 26.642 98.6483 26.0527 98.4056 25.55C98.1629 25.03 97.8249 24.6227 97.3916 24.328C96.9583 24.0333 96.4556 23.886 95.8836 23.886C95.3289 23.886 94.8263 24.0333 94.3756 24.328C93.9423 24.6227 93.6043 25.03 93.3616 25.55C93.1189 26.0527 92.9976 26.642 92.9976 27.318C92.9976 27.9767 93.1189 28.566 93.3616 29.086C93.6043 29.606 93.9423 30.0133 94.3756 30.308C94.8263 30.6027 95.3289 30.75 95.8836 30.75Z" fill="white"/>
<path d="M102.663 41V39.57L106.511 35.761C106.658 35.6223 106.775 35.488 106.862 35.358C106.949 35.2193 107.014 35.0807 107.057 34.942C107.1 34.8033 107.122 34.6647 107.122 34.526C107.122 34.2313 106.992 33.9887 106.732 33.798C106.481 33.5987 106.164 33.499 105.783 33.499C105.376 33.499 104.994 33.5857 104.639 33.759C104.284 33.9237 103.898 34.2097 103.482 34.617L102.364 33.252C102.884 32.758 103.434 32.3853 104.015 32.134C104.604 31.8827 105.215 31.757 105.848 31.757C106.498 31.757 107.061 31.8697 107.538 32.095C108.023 32.3117 108.4 32.6193 108.669 33.018C108.938 33.408 109.072 33.8673 109.072 34.396C109.072 34.682 109.029 34.9593 108.942 35.228C108.864 35.488 108.738 35.7437 108.565 35.995C108.392 36.2463 108.166 36.5063 107.889 36.775L105.263 39.31L109.202 39.297V41H102.663Z" fill="white"/>
</svg>
