<svg width="523" height="534" viewBox="0 0 523 534" fill="none" xmlns="http://www.w3.org/2000/svg">
<path d="M417.853 190.763H204.962C161.766 214.212 186.964 241.671 204.962 252.47C208.047 252.984 230.57 253.704 295.98 252.47C377.743 250.928 417.853 284.867 422.481 343.489C426.183 390.387 377.744 434.507 349.974 434.507H181.821C197.762 452.505 235.507 494.055 258.956 516.27C282.405 538.485 314.494 536.912 329.919 522.441C379.8 475.646 479.561 375.885 505.786 348.117C532.558 319.769 522.757 292.58 505.786 275.611L417.853 190.763Z" fill="#FFA822"/>
<path d="M246.615 19.5252L356.146 130.599H221.932C184.907 130.599 123.817 139.855 120.114 207.733C116.412 275.611 169.48 318.807 204.962 318.807L334.548 320.349C371.573 323.435 366.944 372.801 333.005 371.258C320.664 371.258 286.416 370.332 211.133 372.801C135.85 375.269 120.114 368.173 112.401 362.002C107.773 358.917 112.401 364.779 69.2057 320.349C18.2113 267.898 1.92396 254.014 1.32792 227.788C0.813693 205.162 0.0937722 144.174 1.32792 81.2327C2.87061 2.55565 42.9672 13.3545 132.456 13.3545C209.59 13.3545 237.359 10.2691 246.615 19.5252Z" fill="#002244"/>
<path d="M111.209 76.9391C111.209 95.6832 96.0139 110.878 77.2698 110.878C58.5258 110.878 43.3307 95.6832 43.3307 76.9391C43.3307 58.1951 24.5866 0 43.3307 0C62.0748 0 111.209 58.1951 111.209 76.9391Z" fill="white"/>
<circle cx="468.082" cy="313.678" r="23.1403" fill="white"/>
</svg>
